<svg width="245" height="245" viewBox="0 0 245 245" fill="none" xmlns="http://www.w3.org/2000/svg">
<path d="M47 68.0193L122.35 38.7321V57.0656L47 86.3529V68.0193Z" fill="#FFCB4D"/>
<path d="M197.38 68.019L122.03 38.7318V57.0654L197.38 86.3526V68.019Z" fill="#E2AD2D"/>
<path d="M47 50.2872L122.35 21V39.3336L47 68.6208V50.2872Z" fill="#5E5E5E"/>
<path d="M197.38 50.2872L122.03 21V39.3336L197.38 68.6208V50.2872Z" fill="#080808"/>
<path d="M47 96.6603L98.6062 77.694V157.623C98.6062 157.623 99.8025 191.232 126.827 202.97C153.852 214.707 170.872 202.418 170.872 202.418C170.872 202.418 156.115 228.29 106.124 222.866C47 213.833 47 157.623 47 157.623V96.6603Z" fill="white"/>
<path d="M197.06 96.6378L147.257 78.5068V143.559C147.257 143.559 147.257 155.654 141.29 165.132C135.322 174.61 120.09 176.163 120.09 176.163C120.09 176.163 126.551 197.681 159.921 199.626C193.291 201.57 197.06 158.247 197.06 158.247V96.6378Z" fill="white"/>
</svg>
